<svg width="6" height="5" viewBox="0 0 6 5" fill="none" xmlns="http://www.w3.org/2000/svg">
<path d="M3 5C2.87238 4.99928 2.7465 4.96701 2.6315 4.90551C2.5165 4.84401 2.41526 4.75483 2.33513 4.64444L0.230539 1.81111C0.10756 1.64054 0.030171 1.435 0.00719107 1.21793C-0.0157889 1.00085 0.0165644 0.780968 0.100564 0.583333C0.168691 0.41157 0.279866 0.26523 0.420812 0.16179C0.561757 0.058351 0.726516 0.00218503 0.89541 0H5.10459C5.27348 0.00218503 5.43824 0.058351 5.57919 0.16179C5.72013 0.26523 5.83131 0.41157 5.89944 0.583333C5.98343 0.780968 6.01579 1.00085 5.99281 1.21793C5.96983 1.435 5.89244 1.64054 5.76946 1.81111L3.66487 4.64444C3.58474 4.75483 3.4835 4.84401 3.3685 4.90551C3.2535 4.96701 3.12762 4.99928 3 5Z" fill="white"/>
</svg>
