<svg width="168" height="36" viewBox="0 0 168 36" fill="none" xmlns="http://www.w3.org/2000/svg">
<path d="M0.126221 4.61566L14.2978 0.5L28.6271 4.61566L22.2872 6.47133C19.806 7.19759 18.101 9.47321 18.101 12.0586V32.6786L14.2978 35.4885L10.4946 32.6786V12.04C10.4946 9.46345 8.80101 7.19339 6.33123 6.45949L0.126221 4.61566Z" fill="url(#paint0_linear_219_526)"/>
<path d="M0 7.79074L4.673 9.22426C6.49769 9.94464 7.36265 12.1859 7.36265 14.0412V30.9614L2.88582 27.8994C1.56043 26.9928 0.767879 25.4918 0.767879 23.8861C0.767879 22.3106 0.767879 20.2492 0.767879 18.4131C0.767879 16.0683 0.767879 10.5185 0.767879 9.5597C0.767879 8.60087 0 7.79074 0 7.79074Z" fill="url(#paint1_linear_219_526)"/>
<path d="M28.606 7.79056L23.933 9.27157C22.1083 10.0158 21.2433 12.3313 21.2433 14.2481V31.7289L25.7811 28.5223C27.0711 27.6108 27.8381 26.1305 27.8381 24.551C27.8381 22.9076 27.8381 20.7134 27.8381 18.7649C27.8381 16.3424 27.8381 10.6087 27.8381 9.61812C27.8381 8.62753 28.606 7.79056 28.606 7.79056Z" fill="url(#paint2_linear_219_526)"/>
<path d="M10.4897 10.3731L14.3771 12.0575L14.3065 35.5L10.4953 32.6769L10.4897 10.3731Z" fill="url(#paint3_linear_219_526)" fill-opacity="0.28"/>
<path d="M51.6003 8.48993L51.1553 11.6886H46.2877V27.7376H42.199V11.6886H37.0811V8.48993H51.6003ZM60.1089 12.5787C60.554 12.5787 61.0454 12.6528 61.5831 12.8012L60.9156 16.6118C60.3964 16.482 59.9606 16.4171 59.6083 16.4171C58.7368 16.4171 58.0599 16.723 57.5778 17.3349C57.0957 17.9469 56.7156 18.874 56.4374 20.1164V27.7376H52.4878V12.9959H55.9089L56.2705 15.8608C56.6229 14.8224 57.1328 14.0157 57.8003 13.4409C58.4864 12.8661 59.256 12.5787 60.1089 12.5787ZM67.2145 12.9959V27.7376H63.2648V12.9959H67.2145ZM65.2118 5.40252C65.9165 5.40252 66.4913 5.62503 66.9363 6.07006C67.3999 6.49655 67.6317 7.04357 67.6317 7.71112C67.6317 8.37867 67.3999 8.93496 66.9363 9.37999C66.4913 9.80648 65.9165 10.0197 65.2118 10.0197C64.5072 10.0197 63.9324 9.80648 63.4873 9.37999C63.0423 8.93496 62.8198 8.37867 62.8198 7.71112C62.8198 7.04357 63.0423 6.49655 63.4873 6.07006C63.9324 5.62503 64.5072 5.40252 65.2118 5.40252ZM83.6035 7.12702V27.7376H80.1267L79.9042 25.9296C78.8658 27.4316 77.4565 28.1826 75.6764 28.1826C73.8592 28.1826 72.4684 27.4872 71.5042 26.0965C70.5585 24.6873 70.0857 22.7773 70.0857 20.3667C70.0857 18.8462 70.3267 17.5018 70.8088 16.3336C71.3095 15.1469 72.0141 14.2197 72.9227 13.5522C73.8314 12.8846 74.879 12.5508 76.0658 12.5508C77.438 12.5508 78.634 13.0422 79.6539 14.025V6.68198L83.6035 7.12702ZM76.8446 25.2343C77.4194 25.2343 77.9294 25.0952 78.3744 24.8171C78.8194 24.5204 79.2459 24.0661 79.6539 23.4541V16.8621C79.2645 16.3985 78.8658 16.0555 78.4578 15.833C78.0684 15.5919 77.6141 15.4714 77.0949 15.4714C76.1863 15.4714 75.4724 15.87 74.9532 16.6674C74.4525 17.4647 74.2022 18.6979 74.2022 20.3667C74.2022 22.1283 74.4247 23.38 74.8698 24.1217C75.3333 24.8634 75.9916 25.2343 76.8446 25.2343ZM99.6701 20.033C99.6701 20.2184 99.6423 20.7283 99.5867 21.5628H90.3801C90.5099 22.8979 90.8714 23.8435 91.4648 24.3998C92.0582 24.9561 92.8648 25.2343 93.8847 25.2343C94.5151 25.2343 95.1085 25.1323 95.6648 24.9283C96.2211 24.7243 96.8238 24.3998 97.4728 23.9548L99.1138 26.18C97.4635 27.5151 95.5999 28.1826 93.5231 28.1826C91.2052 28.1826 89.4251 27.4872 88.1827 26.0965C86.9403 24.7058 86.3191 22.8237 86.3191 20.4502C86.3191 18.9482 86.5787 17.6038 87.0979 16.4171C87.6357 15.2118 88.4052 14.2661 89.4065 13.58C90.4264 12.8939 91.6317 12.5508 93.0224 12.5508C95.1178 12.5508 96.7496 13.2091 97.9178 14.5257C99.086 15.8422 99.6701 17.678 99.6701 20.033ZM95.7483 18.9204C95.7483 16.4727 94.8675 15.2489 93.1059 15.2489C92.29 15.2489 91.6502 15.5548 91.1867 16.1667C90.7416 16.7601 90.4728 17.7336 90.3801 19.0873H95.7483V18.9204ZM110.484 12.5508C111.782 12.5508 112.792 12.9495 113.516 13.7469C114.239 14.5257 114.6 15.6104 114.6 17.0012V27.7376H110.651V17.6687C110.651 16.8714 110.512 16.3151 110.234 15.9998C109.974 15.6661 109.575 15.4992 109.038 15.4992C108.481 15.4992 107.971 15.6753 107.508 16.0277C107.063 16.3614 106.627 16.8714 106.2 17.5575V27.7376H102.251V12.9959H105.672L105.978 14.8595C106.59 14.0992 107.257 13.5244 107.981 13.135C108.722 12.7456 109.557 12.5508 110.484 12.5508ZM126.897 27.0422C126.36 27.4131 125.748 27.6912 125.062 27.8767C124.394 28.0806 123.726 28.1826 123.059 28.1826C121.538 28.1641 120.389 27.7283 119.61 26.8753C118.831 26.0224 118.442 24.7707 118.442 23.1204V15.7773H116.244V12.9959H118.442V9.7694L122.391 9.29655V12.9959H125.785L125.395 15.7773H122.391V23.0369C122.391 23.7416 122.512 24.2515 122.753 24.5667C122.994 24.882 123.365 25.0396 123.865 25.0396C124.366 25.0396 124.922 24.8727 125.534 24.5389L126.897 27.0422Z" fill="white"/>
<path d="M133.264 12.5508C135.34 12.5508 137.12 13.1442 138.604 14.331L137.102 16.584C135.86 15.8051 134.636 15.4157 133.43 15.4157C132.781 15.4157 132.281 15.5363 131.928 15.7773C131.576 16.0184 131.4 16.3429 131.4 16.7508C131.4 17.0475 131.474 17.2979 131.622 17.5018C131.789 17.7058 132.086 17.9005 132.513 18.0859C132.958 18.2714 133.616 18.4939 134.487 18.7535C136.045 19.18 137.204 19.7548 137.964 20.478C138.724 21.1826 139.105 22.1561 139.105 23.3985C139.105 24.3813 138.817 25.2343 138.242 25.9574C137.686 26.6806 136.926 27.2369 135.962 27.6263C134.997 27.9972 133.922 28.1826 132.735 28.1826C131.493 28.1826 130.362 27.9972 129.342 27.6263C128.322 27.2369 127.45 26.7084 126.727 26.0409L128.674 23.8714C129.917 24.8356 131.233 25.3177 132.624 25.3177C133.366 25.3177 133.95 25.1786 134.376 24.9005C134.821 24.6038 135.044 24.2051 135.044 23.7045C135.044 23.3151 134.96 23.0091 134.793 22.7866C134.626 22.5641 134.32 22.3601 133.875 22.1747C133.43 21.9707 132.735 21.7389 131.789 21.4793C130.306 21.0714 129.203 20.4965 128.479 19.7548C127.775 18.9945 127.422 18.0581 127.422 16.9455C127.422 16.1111 127.664 15.3601 128.146 14.6926C128.628 14.025 129.305 13.5058 130.176 13.135C131.066 12.7456 132.095 12.5508 133.264 12.5508ZM153.861 20.033C153.861 20.2184 153.833 20.7283 153.777 21.5628H144.571C144.7 22.8979 145.062 23.8435 145.655 24.3998C146.249 24.9561 147.055 25.2343 148.075 25.2343C148.706 25.2343 149.299 25.1323 149.855 24.9283C150.412 24.7243 151.014 24.3998 151.663 23.9548L153.304 26.18C151.654 27.5151 149.79 28.1826 147.714 28.1826C145.396 28.1826 143.616 27.4872 142.373 26.0965C141.131 24.7058 140.51 22.8237 140.51 20.4502C140.51 18.9482 140.769 17.6038 141.288 16.4171C141.826 15.2118 142.596 14.2661 143.597 13.58C144.617 12.8939 145.822 12.5508 147.213 12.5508C149.308 12.5508 150.94 13.2091 152.108 14.5257C153.277 15.8422 153.861 17.678 153.861 20.033ZM149.939 18.9204C149.939 16.4727 149.058 15.2489 147.296 15.2489C146.48 15.2489 145.841 15.5548 145.377 16.1667C144.932 16.7601 144.663 17.7336 144.571 19.0873H149.939V18.9204ZM162.588 12.5508C163.571 12.5508 164.452 12.6992 165.231 12.9959C166.028 13.274 166.779 13.7191 167.484 14.331L165.759 16.6674C165.277 16.2965 164.804 16.0277 164.341 15.8608C163.896 15.6939 163.404 15.6104 162.866 15.6104C160.771 15.6104 159.723 17.2237 159.723 20.4502C159.723 22.082 159.992 23.2502 160.53 23.9548C161.068 24.6594 161.837 25.0118 162.839 25.0118C163.358 25.0118 163.831 24.9376 164.257 24.7892C164.684 24.6224 165.184 24.3535 165.759 23.9826L167.484 26.4581C166.074 27.6078 164.461 28.1826 162.644 28.1826C161.198 28.1826 159.937 27.8674 158.861 27.2369C157.804 26.6065 156.988 25.7164 156.413 24.5667C155.839 23.3985 155.551 22.0356 155.551 20.478C155.551 18.9204 155.839 17.5482 156.413 16.3614C156.988 15.1561 157.804 14.2197 158.861 13.5522C159.937 12.8846 161.179 12.5508 162.588 12.5508Z" fill="url(#paint4_linear_219_526)"/>
<defs>
<linearGradient id="paint0_linear_219_526" x1="14.3767" y1="0.5" x2="14.3767" y2="35.4885" gradientUnits="userSpaceOnUse">
<stop stop-color="#2FA1F3"/>
<stop offset="0.215777" stop-color="#2783D9"/>
<stop offset="1" stop-color="#2B52B7"/>
</linearGradient>
<linearGradient id="paint1_linear_219_526" x1="3.55948" y1="9.22427" x2="3.55948" y2="30.9614" gradientUnits="userSpaceOnUse">
<stop stop-color="white"/>
<stop offset="1" stop-color="white"/>
</linearGradient>
<linearGradient id="paint2_linear_219_526" x1="25.0465" y1="9.27158" x2="25.0465" y2="31.7289" gradientUnits="userSpaceOnUse">
<stop stop-color="white"/>
<stop offset="1" stop-color="white"/>
</linearGradient>
<linearGradient id="paint3_linear_219_526" x1="12.4334" y1="10.3731" x2="12.4334" y2="35.5" gradientUnits="userSpaceOnUse">
<stop stop-color="#2995EA" stop-opacity="0"/>
<stop offset="1" stop-color="#2995EA"/>
</linearGradient>
<linearGradient id="paint4_linear_219_526" x1="102.402" y1="1.73758" x2="102.402" y2="35.4986" gradientUnits="userSpaceOnUse">
<stop stop-color="#2995EA"/>
<stop offset="1" stop-color="#2B52B7"/>
</linearGradient>
</defs>
</svg>
