<svg width="100" height="100" viewBox="0 0 100 100" fill="none" xmlns="http://www.w3.org/2000/svg">
<circle cx="50" cy="50" r="50" fill="white"/>
<path d="M56.6685 20.8457H52.7582V28.8027H56.6685V20.8457Z" fill="#1264D2"/>
<path d="M67.0958 20.8457H63.1855V28.8027H67.0958V20.8457Z" fill="#1264D2"/>
<path d="M46.2411 20.8457H42.3309V28.8027H46.2411V20.8457Z" fill="#1264D2"/>
<path d="M35.8139 20.8457H31.9036V28.8027H35.8139V20.8457Z" fill="#1264D2"/>
<path d="M26.9507 44.1951H18.9999V48.1082H26.9507V44.1951Z" fill="#1264D2"/>
<path d="M26.9506 33.7595H18.9998V37.6729H26.9506V33.7595Z" fill="#1264D2"/>
<path d="M26.9507 54.6304H18.9999V58.5437H26.9507V54.6304Z" fill="#1264D2"/>
<path d="M26.9507 65.0659H18.9999V68.979H26.9507V65.0659Z" fill="#1264D2"/>
<path d="M46.2411 73.936H42.3309V81.8931H46.2411V73.936Z" fill="#1264D2"/>
<path d="M35.8139 73.936H31.9036V81.8931H35.8139V73.936Z" fill="#1264D2"/>
<path d="M56.6685 73.936H52.7582V81.8931H56.6685V73.936Z" fill="#1264D2"/>
<path d="M67.0958 73.936H63.1855V81.8931H67.0958V73.936Z" fill="#1264D2"/>
<path d="M80.0002 54.6304H72.0493V58.5437H80.0002V54.6304Z" fill="#1264D2"/>
<path d="M80.0002 65.0659H72.0493V68.979H80.0002V65.0659Z" fill="#1264D2"/>
<path d="M80.0002 44.1951H72.0493V48.1082H80.0002V44.1951Z" fill="#1264D2"/>
<path d="M80.0003 33.7595H72.0495V37.6729H80.0003V33.7595Z" fill="#1264D2"/>
<path d="M37.0499 63.9226H61.9495V38.8162H37.0499V63.9226ZM57.189 58.1301H54.3322V48.9539H57.189V58.1301ZM55.7606 44.6087C56.6717 44.6087 57.3594 45.301 57.3649 46.2208C57.3766 46.651 57.2245 47.0515 56.9362 47.3501C56.6325 47.6644 56.2026 47.8374 55.7254 47.8374C54.8357 47.8374 54.1388 47.1322 54.1388 46.2318C54.1386 45.3216 54.8512 44.6087 55.7606 44.6087ZM45.321 44.9537H48.105L52.598 58.1299H49.5782L48.3116 54.3975H45.0487L43.8172 58.1299H40.8474L45.321 44.9537Z" fill="#1264D2"/>
<path d="M46.6831 49.3405C46.6804 49.3327 46.6778 49.3247 46.6752 49.3169L45.8049 51.8904H47.5502L46.6831 49.3405Z" fill="#1264D2"/>
<path d="M26.9669 28.6724V74.0664H72.0329V28.6724H26.9669ZM65.8825 65.8905C65.8825 66.9774 65.0021 67.8585 63.9161 67.8585H35.0836C33.9976 67.8585 33.1171 66.9774 33.1171 65.8905V36.8482C33.1171 35.7614 33.9976 34.8803 35.0836 34.8803H63.9162C65.0022 34.8803 65.8827 35.7614 65.8827 36.8482V65.8905H65.8825Z" fill="#1264D2"/>
</svg>
